<svg width="566" height="548" viewBox="0 0 566 548" fill="none" xmlns="http://www.w3.org/2000/svg">
<path d="M0.53125 271.08H66.9013" stroke="#EB5E1B" stroke-width="3" stroke-miterlimit="10"/>
<path d="M87.4023 271.08H107.888" stroke="#EB5E1B" stroke-width="3" stroke-miterlimit="10"/>
<path d="M128.391 271.08H252.349" stroke="#EB5E1B" stroke-width="3" stroke-miterlimit="10"/>
<path d="M272.852 271.08H293.337" stroke="#EB5E1B" stroke-width="3" stroke-miterlimit="10"/>
<path d="M313.84 271.08H436.819" stroke="#EB5E1B" stroke-width="3" stroke-miterlimit="10"/>
<path d="M458.297 271.08H478.783" stroke="#EB5E1B" stroke-width="3" stroke-miterlimit="10"/>
<path d="M499.285 271.08H565.655" stroke="#EB5E1B" stroke-width="3" stroke-miterlimit="10"/>
<path d="M261.133 141.386H309.939" stroke="#EB5E1B" stroke-width="3" stroke-miterlimit="10"/>
<path d="M268.934 214.526H301.155" stroke="#EB5E1B" stroke-width="3" stroke-miterlimit="10"/>
<path d="M261.133 400.759H309.939" stroke="#EB5E1B" stroke-width="3" stroke-miterlimit="10"/>
<path d="M268.934 327.636H301.155" stroke="#EB5E1B" stroke-width="3" stroke-miterlimit="10"/>
<path d="M285.531 547.999V397.839" stroke="#EB5E1B" stroke-width="3" stroke-miterlimit="10"/>
<path d="M285.531 377.358V355.913" stroke="#EB5E1B" stroke-width="3" stroke-miterlimit="10"/>
<path d="M285.531 335.431V212.569" stroke="#EB5E1B" stroke-width="3" stroke-miterlimit="10"/>
<path d="M285.531 192.087V171.621" stroke="#EB5E1B" stroke-width="3" stroke-miterlimit="10"/>
<path d="M285.531 151.139V0" stroke="#EB5E1B" stroke-width="3" stroke-miterlimit="10"/>
<path d="M155.715 295.46V246.7" stroke="#EB5E1B" stroke-width="3" stroke-miterlimit="10"/>
<path d="M228.922 287.65V255.475" stroke="#EB5E1B" stroke-width="3" stroke-miterlimit="10"/>
<path d="M155.715 246.7L244.545 231.094L261.13 141.386" stroke="#EB5E1B" stroke-width="3" stroke-miterlimit="10"/>
<path d="M155.715 295.461L244.545 312.03L261.13 400.759" stroke="#EB5E1B" stroke-width="3" stroke-miterlimit="10"/>
<path d="M415.353 246.7L325.559 231.094L309.938 141.386" stroke="#EB5E1B" stroke-width="3" stroke-miterlimit="10"/>
<path d="M415.353 295.461L325.559 312.03L309.938 400.759" stroke="#EB5E1B" stroke-width="3" stroke-miterlimit="10"/>
<path d="M155.715 295.461L228.924 287.649" stroke="#EB5E1B" stroke-width="3" stroke-miterlimit="10"/>
<path d="M155.715 246.7L228.924 255.474" stroke="#EB5E1B" stroke-width="3" stroke-miterlimit="10"/>
<path d="M415.35 295.461L342.141 287.649" stroke="#EB5E1B" stroke-width="3" stroke-miterlimit="10"/>
<path d="M415.35 246.7L342.141 255.474V287.649" stroke="#EB5E1B" stroke-width="3" stroke-miterlimit="10"/>
<path d="M261.133 141.386L268.951 214.525" stroke="#EB5E1B" stroke-width="3" stroke-miterlimit="10"/>
<path d="M309.938 141.386L301.156 214.525" stroke="#EB5E1B" stroke-width="3" stroke-miterlimit="10"/>
<path d="M261.133 400.759L268.951 327.636" stroke="#EB5E1B" stroke-width="3" stroke-miterlimit="10"/>
<path d="M301.156 327.636L309.938 400.759" stroke="#EB5E1B" stroke-width="3" stroke-miterlimit="10"/>
<path d="M228.922 255.475L254.304 240.847L268.93 214.526" stroke="#EB5E1B" stroke-width="3" stroke-miterlimit="10"/>
<path d="M228.922 287.649L254.304 302.277L268.93 327.635" stroke="#EB5E1B" stroke-width="3" stroke-miterlimit="10"/>
<path d="M342.144 255.475L315.798 240.847L301.156 214.526" stroke="#EB5E1B" stroke-width="3" stroke-miterlimit="10"/>
<path d="M342.144 287.649L315.798 302.277L301.156 327.635" stroke="#EB5E1B" stroke-width="3" stroke-miterlimit="10"/>
<path d="M286.012 60.4512C169.84 60.4512 75.6797 154.538 75.6797 270.582C75.6797 386.627 169.856 480.714 286.012 480.714C402.168 480.714 496.345 386.627 496.345 270.582C496.345 154.538 402.184 60.4512 286.012 60.4512Z" stroke="#EB5E1B" stroke-width="3" stroke-miterlimit="10"/>
<path d="M415.352 246.7V295.46" stroke="#EB5E1B" stroke-width="3" stroke-miterlimit="10"/>
</svg>
